<?xml version="1.0" encoding="utf-8"?>
<!-- Generator: Adobe Illustrator 22.0.1, SVG Export Plug-In . SVG Version: 6.00 Build 0)  -->
<svg version="1.1" id="Layer_1" xmlns="http://www.w3.org/2000/svg" xmlns:xlink="http://www.w3.org/1999/xlink" x="0px" y="0px"
	 viewBox="0 0 304.6 98" style="enable-background:new 0 0 304.6 98;" xml:space="preserve">
<style type="text/css">
	.st0{fill:none;}
	.st1{fill:#00B9FF;}
	.st2{fill:#243049;}
</style>
<title>Artboard 1</title>
<g id="Layer_1_1_">
	<rect x="-43.4" y="-49" class="st0" width="391.4" height="196"/>
	<polygon class="st1" points="38.6,29.4 43.8,38.1 34.7,46.7 50.4,46.7 51.8,43.2 43.2,43.2 48.4,38 45.4,32.8 59.6,32.8 47.1,62.4 
		51.4,62.4 65.4,29.4 	"/>
</g>
<g id="Layer_2_1_">
	<rect x="228.5" y="49.7" class="st2" width="3.6" height="18.9"/>
	<rect x="228.4" y="43.3" class="st2" width="3.9" height="3.8"/>
	<polygon class="st2" points="222.4,43.3 218,62.9 217.8,62.9 213.2,49.7 210,49.7 204.8,62.9 204.6,62.9 201.1,43.3 197.2,43.3 
		202.1,68.6 205.6,68.6 211.3,54.6 211.5,54.6 216.4,68.6 220,68.6 226.1,43.3 	"/>
	<path class="st2" d="M172.8,65.8c-3.5,0-5.8-2.7-5.8-6.7c0-3.7,2.1-6.8,5.4-6.8c3.8,0,4.9,3.2,5,5.2h-6.6l-1.2,2.9h11.5
		c0.1-0.8,0.1-1,0.1-1.3c0-5.4-2.8-9.8-8.7-9.8c-5.1,0-9.1,4.2-9.1,9.9c0,5.9,3.8,9.8,9.2,9.8c3,0.1,5.8-1.1,7.8-3.2l-2.2-2.1
		C176.7,65,174.8,65.8,172.8,65.8"/>
	<path class="st2" d="M158.6,49.3c0-2.3,1.1-3.7,3.3-3.7c1.1,0,2.1,0.2,3.1,0.6l1.1-2.6c-1.4-0.6-2.9-1-4.4-1
		c-3.6,0-6.8,1.8-6.8,6.7v0.6h-2.4v3h2.4v15.7h3.6V52.9h3.6l1.2-3h-4.9v-0.6C158.4,49.3,158.6,49.3,158.6,49.3z"/>
	<path class="st2" d="M126.4,49.3c-2.2-0.2-4.4,0.9-5.6,2.8h-0.2v-2.4h-3.5v18.9h3.6V58.3c0-3.7,1.9-6,4.9-6c2.8,0,4.5,1.5,4.5,5
		v11.2h3.6V56.7C133.7,51.9,130.9,49.3,126.4,49.3"/>
	<path class="st2" d="M109.5,61.3c0,2.8-2.3,4.6-5.6,4.6c-1.9,0-3.6-0.9-3.6-3.2c0-2.1,1.7-3.5,4.4-3.5c2.4,0,3.9,0.4,4.8,1.1
		C109.5,60.3,109.5,61.3,109.5,61.3z M104.5,49.3c-1.9,0-3.8,0.3-5.6,0.9l0.6,2.9c1.5-0.5,3-0.7,4.5-0.8c3,0,5.5,1.4,5.5,4.5v0.5
		c-1.5-0.6-3.1-0.9-4.7-0.8c-4.9,0-8.1,2.4-8.1,6.4c0,4.2,3.1,6,6.6,6c2.3,0.2,4.5-0.8,6-2.6h0.2v2.2h3.5V56.8
		C113,51.6,109.7,49.3,104.5,49.3"/>
	<polygon class="st2" points="65.4,43.3 65.4,46.7 73.4,46.7 73.4,68.6 77.2,68.6 77.2,46.7 85.2,46.7 85.2,43.3 	"/>
	<path class="st2" d="M96.9,50c-1-0.4-2-0.6-3.1-0.5c-1.9-0.1-3.8,0.7-5,2.2h-0.2v-2h-3.5v18.9h3.6V58.2c0-4,1.9-5.6,4.8-5.6
		c0.8,0,1.7,0.1,2.5,0.3L96.9,50z"/>
	<path class="st2" d="M196.3,50.1c-1-0.4-2-0.6-3.1-0.6c-2-0.1-3.9,0.7-5.2,2.2h-0.2v-2.1h-3.5v18.9h3.6V58.2c0-4,2.2-5.6,5-5.6
		c0.8,0,1.7,0.1,2.5,0.3L196.3,50.1z"/>
	<path class="st2" d="M261.3,65.8c-3.5,0-5.8-2.7-5.8-6.7c0-3.7,2.1-6.8,5.4-6.8c3.8,0,4.9,3.2,5,5.2h-6.6l-1.2,2.9h11.5
		c0-0.8,0-1,0-1.3c0-5.4-2.8-9.8-8.7-9.8c-5.1,0-9.1,4.2-9.1,9.9c0,5.9,3.8,9.8,9.2,9.8c3,0.1,5.8-1.1,7.8-3.2l-2.2-2.1
		C265.2,65,263.3,65.8,261.3,65.8"/>
	<path class="st2" d="M144.6,57.7c-2.8-0.4-4.4-0.9-4.4-2.7c0-1.7,1.6-2.7,3.6-2.7c1.8,0,3.5,0.6,5,1.6l1.7-2.6
		c-1.9-1.4-4.3-2.1-6.6-2c-4.2,0-7.2,2.5-7.2,5.8c0,3.8,2.4,5,6.6,5.7c2.3,0.4,4.3,0.6,4.3,2.6c0,1.7-1.6,2.6-3.8,2.6
		c-2.1,0-4.2-0.7-5.8-2l-1.6,2.8c1.4,1.2,4.2,2.2,7.3,2.2c4.3,0,7.5-2.5,7.5-5.9C151.1,59,147.9,58.1,144.6,57.7"/>
	<path class="st2" d="M243.4,57.7c-2.8-0.4-4.4-0.9-4.4-2.7c0-1.7,1.6-2.7,3.6-2.7c1.8,0,3.5,0.6,5,1.6l1.7-2.6
		c-1.9-1.4-4.3-2.1-6.6-2c-4.2,0-7.2,2.5-7.2,5.8c0,3.8,2.4,5,6.5,5.7c2.3,0.4,4.3,0.6,4.3,2.6c0,1.7-1.6,2.6-3.8,2.6
		c-2.1,0-4.2-0.7-5.8-2l-1.6,2.8c1.4,1.2,4.2,2.2,7.3,2.2c4.3,0,7.5-2.5,7.5-5.9C249.9,59,246.7,58.1,243.4,57.7"/>
</g>
</svg>
