<svg xmlns="http://www.w3.org/2000/svg" width="439.795" height="356.518"><path d="M70.365 165.583c-1.444 32.089 32.51 55.959 62.704 50.634 15.194-2.68 25.669-14.296 29.625-28.811 4.591-16.845-2.18-37.01-13.381-49.802-10.352-11.822-26.148-15.415-40.359-8.643-12.35 5.884-20.015 18.528-24.72 30.854-5.89 15.43-7.775 32.384-7.309 48.807.432 15.2 3.038 31.148 9.865 44.872 5.509 11.074 13.467 18.25 24.726 23.137 11.272 4.893 23.665 7.069 35.839 8.136 30.837 2.703 62.369-2.079 92.207-9.692 31.82-8.12 62.999-20.354 91.024-37.572 22.486-13.814 45.195-32.323 55.604-57.306 10.05-24.12 2.515-48.787-13.455-68.326-15.052-18.417-36.26-31.957-57.35-42.396-22.51-11.143-46.595-18.863-70.834-25.236-22.612-5.945-45.533-10.587-68.522-14.806-22.244-4.082-44.916-7.255-67.573-5.619-21.267 1.536-41.778 8.458-58.301 22.168-17.446 14.476-29.248 35.501-37.304 56.37C4.122 124.959-.216 149.299-.656 173.49c-.401 22.028 2.432 45.651 11.966 65.735 17.688 37.264 58.099 62.767 96.497 74.105 35.006 10.336 73.551 8.067 101.747-16.934 23.417-20.764 36.888-51.695 41.609-82.183 4.586-29.615.673-62.681-18.17-86.93-21.327-27.446-61.837-37.176-93.219-22.378-20.056 9.457-35.049 27.424-47.291 45.367-13.802 20.229-27.032 42.473-33.365 66.285-2.989 11.236-3.843 23.062.182 34.118 2.89 7.936 8.371 14.541 15.036 19.608 14.286 10.862 33.588 14.013 51.007 15.418 36.077 2.911 72.537-1.242 107.198-11.525 36.431-10.81 72.694-28.962 97.874-58.105 24.625-28.501 34.828-69.098 21.063-104.889-14.177-36.864-49.702-62.367-85.602-75.632-38.335-14.165-79.803-13.665-116.622 4.743-41.985 20.99-73.89 60.044-95.438 100.914-16.953 32.154-33.797 75.005-12.891 109.274 16.645 27.284 51.583 35.774 81.494 34.715 39.165-1.387 76.692-19.596 104.791-46.423 31.976-30.529 51.289-76.567 34.643-119.766-8.749-22.705-26.862-42.568-47.283-55.467-17.213-10.872-37.767-15.052-57.437-8.979-37.961 11.721-58.285 52.994-70.657 87.653-10.963 30.712-21.168 74.699 2.69 102.155 25.481 29.325 71.147 17.272 98.464-2.127 30.909-21.949 53.874-61.626 38.093-99.335-3.487-8.334-9.622-16.032-18.506-18.757-8.529-2.616-17.195 1.483-23.758 6.713-14.542 11.586-23.555 31.358-22.355 49.922 1.097 16.976 9.812 32.501 24.514 41.31 16.477 9.872 36.914 8.125 54.262 1.705 38.517-14.253 64.239-57.945 48.369-97.687-6.18-15.477-19.393-33.436-36.057-38.565-11.922-3.67-23.424 2.038-32.116 9.973-11.948 10.907-19.998 26.105-26.467 40.704-6.636 14.974-11.705 30.824-14.809 46.909-2.99 15.494-3.74 31.898-2.425 47.605 1.029 12.296 4.006 28.938 16.811 34.369 14.293 6.062 32.288-6.484 42.613-15.071 14.199-11.809 26.435-26.39 36.614-41.741 11.319-17.069 24.654-42.604 13.332-62.782-.223-.398-.989-.309-1.309-.133-12.944 7.124-20.95 23.03-26.684 35.95-7.111 16.021-12.4 34.557-10.38 52.219 1.551 13.557 11.195 25.195 25.324 26.532 12.435 1.177 22.092-9.055 28.174-18.612 8.617-13.542 13.153-30.043 14.797-45.892 1.388-13.383.593-27.334-8.306-38.031-20.524-24.67-59.379-29.535-89.252-26.046-29.795 3.479-63.996 18.576-71.267 50.652-3.35 14.78-1.693 30.779 8.708 42.406 9.088 10.158 22.977 14.646 36.188 15.826 28.855 2.578 65.217-11.033 75.701-40.202 4.637-12.903 4.521-31.764-7.23-41.01-11.47-9.026-27.951.827-36.153 9.729-9.234 10.021-14.79 23.531-18.937 36.309-4.96 15.281-7.745 31.424-7.773 47.501-.024 13.605 2.123 28.119 9.844 39.63 7.486 11.162 19.557 15.147 32.488 15.103 13.379-.046 27.189-3.615 36.636-13.578 8.555-9.021 11.345-21.9 11.579-33.955.581-29.985-12.495-60.952-28.624-85.658-6.713-10.284-14.741-20.565-25.016-27.517-10.021-6.78-22.174-10.714-33.75-13.828-27.455-7.386-58.44-10.38-86.288-3.421-10.95 2.737-21.967 7.672-29.325 16.51-7.599 9.127-8.641 21.166-6.378 32.437 3.727 18.57 14.961 36.654 27.581 50.46 12.031 13.164 27.515 22.597 44.61 27.557 35.367 10.261 73.894.939 106.936-12.838 34.727-14.48 65.949-35.781 94.247-60.378 15.843-13.771 30.995-28.618 43.545-45.498 10.833-14.57 21.102-32.702 18.773-51.522-4.762-38.497-56.52-37.232-84.706-31.926-39.979 7.525-77.126 30.535-107.795 56.431-32.937 27.812-61.91 63.284-76.221 104.382-10.427 29.945-13.982 71.415 8.744 96.938 17.46 19.609 46.176 22.905 70.842 20.424 30.843-3.102 60.993-15.239 86.806-32.13 23.848-15.604 46.59-37.589 55.275-65.456 3.96-12.704 4.196-26.3.37-39.06-6.177-20.6-22.781-35.908-40.583-46.844-17.689-10.867-37.067-16.705-56.442-23.604-16.751-5.964-34.917-11.32-52.81-11.597-14.258-.22-26.744 8.206-31.171 22.033-4.478 13.983 1.774 29.189 8.925 41.092 9.042 15.05 21.929 28.018 36.078 38.301 11.804 8.579 24.878 15.111 39.669 15.374C342 233.83 342.763 135.449 319.91 89.963c-7.854-15.631-21.144-28.716-35.615-38.29C269.5 41.884 252 37.233 234.33 39.169c-37.212 4.079-67.187 34.403-87.278 63.703-22.487 32.793-37.392 71.732-37.234 111.8.077 19.504 4.202 38.909 13.72 56.032 9.688 17.429 24.949 30.908 41.941 40.985 37.297 22.118 84.059 28.198 126.738 26.145 39.614-1.906 82.283-14.091 105.493-48.811 7.773-11.628 10.731-25.463 7.776-39.163-3.087-14.312-12.075-26.849-21.857-37.395-23.8-25.661-55.984-43.762-87.555-58.069-13.917-6.307-28.243-11.889-42.941-16.096-15.586-4.462-34.631-10.735-50.435-4.228-19.267 7.933-27.298 32.99-30.724 51.601-4.015 21.803-3.356 47.531 9.098 66.63 25.177 38.613 82.358 15.017 106.537-12.131 27.271-30.621 31.53-76.205 22.431-114.718-9.024-38.193-37.99-70.181-76.118-80.813-17.118-4.774-35.371-4.191-52.002 2.11-19.145 7.253-34.554 22.684-44.733 40.143-22.952 39.365-16.018 95.695 17.864 126.586 31.869 29.058 78.523 37.791 120.34 38.185 39.64.374 83.583-6.583 115.943-31.078 16.294-12.333 27.516-29.759 31.752-49.761 4.699-22.187-.857-45.942-13.09-64.78-24.784-38.168-76.793-49.344-118.294-36.766-41.752 12.655-76.505 46.468-93.951 85.975-10.341 23.419-18.972 61.062 12.628 71.474 12.475 4.11 26.479 3.027 39.216.938 15.222-2.497 30.071-7.222 44.318-13.072 31.862-13.082 72.907-37.557 74.23-76.176.603-17.611-9.028-33.607-20.892-45.851-14.67-15.139-33.794-25.711-53.333-33.177-20.492-7.831-41.936-12.069-63.767-8.242-18.68 3.275-36.132 12.848-48.448 27.309-12.373 14.528-18.137 33.992-16.653 52.926 1.427 18.197 7.567 36.731 20.815 49.706 20.974 20.542 53.752 26.555 82.046 25.054 21.783-1.155 53.477-7.772 62.976-30.511 4.392-10.513.95-22.443-5.088-31.556-8.381-12.65-22.268-20.458-36.291-25.315-34.972-12.112-75.358-9.14-111.028-2.002-34.177 6.839-71.225 18.788-89.923 50.591-5.72 9.729-8.182 21.151-4.575 32.043 2.743 8.282 8.814 15.438 15.623 20.691 14.684 11.329 34.558 15.02 52.561 16.784 36.533 3.579 73.88-1.564 109.237-10.742 38.542-10.005 82.356-26.65 106.025-60.645 12.497-17.949 17.944-40.467 10.204-61.384-7.638-20.639-25.946-35.942-43.763-47.721-19.719-13.036-41.386-23.833-63.624-31.802-23.122-8.285-48.341-14.008-73.012-11.616-44.461 4.311-74.283 45.759-88.219 84.75-10.312 28.853-16.715 70.874 11.537 91.915 23.273 17.333 57.784 13.433 84.149 7.177 32.2-7.639 61.41-22.865 86.7-44.128 14.485-12.178 29.643-28.276 31.373-48.065 1.743-19.938-13.485-33.324-30.144-40.723-17.262-7.667-37.514-10.826-56.328-9.884-17.839.893-34.064 8.916-45.441 22.69-11.299 13.679-16.49 31.747-16.56 49.286-.078 19.814 7.328 38.328 19.729 53.605 10.771 13.27 28.153 21.567 44.117 12.019 16.312-9.756 24.069-29.64 25.214-47.858 1.177-18.73-5.415-40.966-20.483-53.056-11.652-9.348-27.267-8.983-40.551-3.694-16.414 6.535-29.447 20.365-38.068 35.451-6.676 11.683-9.328 25.79-10.51 39.034-2.203 24.685 2.294 62.276 33.006 65.937 15.11 1.801 36.541-4.752 42.571-20.017 5.922-14.992-6.233-32.03-15.648-42.573a101.768 101.768 0 0 0-3.607-3.796c-.354-.358-.875-.32-1.309-.133-13.502 5.829-23.02 18.554-30.357 30.813-7.963 13.306-14.281 28.658-16.144 44.143-.086.714.995.687 1.401.476 18.16-9.453 23.795-34.259 27.017-52.637 3.82-21.79 4.959-45.12 1.905-67.095-.119-.859-1.632-.327-1.887.157-6.556 12.42-9.361 27.468-11.252 41.226-2.082 15.145-3.104 33.057 4.367 46.982 5.405 10.076 18.805 15.289 29.491 10.681 10.563-4.554 12.977-18.597 13.747-28.679 1.111-14.55-.998-29.445-4.13-43.628-2.398-10.857-5.336-22.872-11.498-32.308-.204-.313-.747-.319-1.058-.224-15.681 4.773-17.322 27.882-18.097 41.237-1.038 17.895.092 36.693 3.79 54.263.156.741 1.452.426 1.771.015 8.649-11.14 12.122-25.143 13.853-38.901 1.947-15.48 1.335-31.278-.178-46.768-.078-.794-1.703-.408-1.887.157-8.413 25.825-9.742 55.772-.044 81.442.28.743 1.351.415 1.771.015 17.266-16.436 17.89-46.264 13.674-68.1-.175-.906-1.783-.323-1.943.337-3.98 16.363-4.151 33.741-1.573 50.334 2.398 15.435 8.06 32.028 20.723 42.029.482.381 1.406.057 1.668-.447 11.142-21.472 12.191-46.765 10.867-70.451-.056-.994-1.862-.696-1.955.156-1.314 12.062-3.84 29.146 4.146 39.533.425.553 1.534.243 1.807-.319 11.771-24.189 10.985-51.364 16.273-77.208l-1.955.156c-.086 17.184-2.734 34.246-3.229 51.418-.456 15.798.759 32.877 10.079 46.223.231.331.721.288 1.058.225 5.821-1.091 14.44-2.852 16.707-9.293 1.756-4.991-2.853-10.114-6.117-13.213-11.52-10.938-28.728-15.323-43.827-18.375-41.034-8.292-84.997-6.107-126.306-.997-.543.067-1.737 1.069-.65 1.33 44.899 10.784 90.969 14.798 136.709 20.319l.677-1.376c-14.453-1.312-28.988-2.675-43.491-1.354-.59.054-1.696 1.011-.65 1.33 25.963 7.938 53.483 5.747 79.952 10.859l.428-1.379c-31.795 1.44-65.94 2.077-95.109 16.354-.453.222-.774.711-.323 1.103 14.41 12.532 34.897 14.92 53.226 15.946 20.191 1.13 40.585-.643 60.697 1.761l-.298-1.115c-8.863 5.483-20.288 5.137-30.354 5.141l.832.793c16.753-36.282 58.56-80.556 31.2-122.161-17.019-25.879-54.635-25.637-81.683-21.481-16.405 2.52-32.5 7.163-47.889 13.347-12.58 5.055-25.044 11.301-35.535 19.987-11.311 9.364-19.429 22.726-24.663 36.294-4.935 12.792-7.672 27.792-3.173 41.099 4.574 13.527 17.296 19.905 30.774 21.239 13.917 1.378 32.789-.232 41.678-12.646 7.61-10.628 4.131-25.381-.297-36.506-5.856-14.709-15.519-28.168-26.689-39.3-10.475-10.438-25.775-21.16-41.333-18.657-16.406 2.64-20.403 21.705-19.773 35.587 1.89 41.69 36.266 69.864 71.558 85.602 34.553 15.408 73.276 22.747 110.904 24.952 34.053 1.996 73.002 1.039 102.906-17.411 29.58-18.25 35.76-55.547 21.422-85.642-15.423-32.372-48.406-54.608-79.442-70.244-30.489-15.359-65.045-27.228-99.373-29.048-18.567-.984-37.343 2.95-53.265 12.721-18.061 11.083-30.086 29.477-38.359 48.548-7.684 17.713-12.227 36.775-13.245 56.076-.524 9.916.147 20.032 2.976 29.585 2.991 10.1 8.562 16.957 17.728 22.112 10.116 5.69 21.723 6.966 32.996 4.764 12.454-2.433 22.837-10.271 34.097-15.59 20.066-9.48 38.688-22.301 55.397-36.846 31.097-27.067 61.791-67.923 48.138-111.337-11.783-37.469-51.433-57.914-86.44-68.552C157.149-12.781 49.988-6.208 13.346 77.156c-28.84 65.615-4.227 161.625 63.371 193.677 35.179 16.68 74.064 11.625 106.408-8.981 31.684-20.187 56.889-54.671 61.249-92.521 4.208-36.528-17.301-74.308-51.799-88.147-11.243-4.51-23.514-4.225-34.269 1.429-11.286 5.933-19.475 16.616-25.812 27.391-15.659 26.624-22.97 59.001-25.722 89.5-3.047 33.772 5.614 67.275 22.748 96.498 10.564 18.017 25.225 33.972 43.841 43.772 17.918 9.433 39.23 11.881 58.852 7.08 40.721-9.963 68.163-49.667 82.52-86.562 9.341-24.005 13.499-49.984 12.509-75.697-.974-25.289-6.841-52.04-19.255-74.213-9.162-16.365-20.42-34.585-37.481-43.661-13.948-7.42-28.813-2.058-40.174 7.477-20.516 17.218-30.708 51.358-17.504 75.733 15.009 27.707 51.471 21.078 76.11 13.432 16.369-5.08 32.255-12.14 46.731-21.336 12.7-8.068 25.199-18.607 31.516-32.59 13.561-30.018-17.613-59.918-45.152-65.628-34.309-7.114-69.677 9.998-96.572 29.914-26.77 19.824-53.194 48.267-61.594 81.376-9.462 37.301 10.776 78.028 44.817 94.74 35.223 17.292 79.792 4.816 103.274-26.078 21.014-27.647 14.301-66.307-11.278-88.456-13.083-11.329-30.211-16.712-47.378-16.25-18.888.508-35.806 9.115-50.556 20.383-14.978 11.443-29.328 27.168-34.948 45.533-5.741 18.761.398 35.672 14.968 48.365 26.962 23.487 64.646 17.481 93.98 2.17 32.061-16.734 60.548-45.475 74.873-78.879 11.213-26.148 10.067-58.499-11.951-78.714-21.13-19.399-53.675-22.126-80.937-21.437-32.768.829-65.625 7.644-96.745 17.71-29.106 9.415-55.668 23.38-79.521 42.677-29.036 23.489-62.031 64.198-38.86 102.547 8.812 14.585 24.481 23.628 39.958 29.608 17.187 6.64 35.688 9.813 53.954 11.61 27.065 2.662 53.663 1.564 80.405-3.282 31.182-5.651 62.877-14.812 90.456-30.741 21.443-12.385 42.895-31.989 40.724-58.95-1.25-15.524-10.282-30.64-20.76-41.73-14.834-15.7-35.356-25.766-55.412-32.994-37.371-13.47-85.731-20.563-119.696 4.956-16.343 12.279-26.384 30.938-32.812 49.95-5.704 16.87-10.034 35.222-4.167 52.677 9.855 29.323 45.139 35.468 72.056 34.368 35.442-1.449 73.597-14.064 100.461-37.64 23.394-20.53 38.722-52.146 31.559-83.521-8.206-35.945-43.584-54.752-77.082-61.341-42.396-8.339-85.396 11.174-109.866 46.118-25.015 35.723-25.342 81.348-6.55 119.835 15.271 31.275 42.895 54.251 74.74 67.395 64.057 26.439 146.25 15.129 197.432-32.712 14.818-13.851 27.051-30.947 32.66-50.601 5.128-17.968 3.248-37.137-4.343-54.104-15.339-34.287-51.892-56.103-88.54-59.132-19.232-1.589-39.544 2.261-56.605 11.384-12.041 6.438-22.276 17.566-31.219 27.636-11.325 12.751-22.015 27.281-27.742 43.493-4.259 12.055-4.33 25.685 6.761 33.942.467.336.945.658 1.433.964.327.213.835.19 1.17.004 5.238-2.905 7.212-7.152 8.663-12.794.235-.913-1.742-.674-1.955.156-.815 3.169-1.68 6.062-3.732 8.657-2.359 2.984-3.688 2.36-6.024.369-2.792-2.378-4.771-5.567-5.969-9.003-2.381-6.833-.947-14.528 1.2-21.214 5.405-16.825 16.934-31.786 28.52-44.831 9.745-10.972 20.769-22.239 34.26-28.47 19.846-9.166 42.278-11.287 63.637-7.101 38.164 7.48 73.39 37.065 80.366 76.361 7.427 41.833-22.688 79.026-55.711 100.57-60.568 39.514-149.237 39.29-207.646-4.312-31.347-23.4-52.022-61.111-53.028-100.437-1.169-45.698 27.76-88.728 70.044-105.614 22.763-9.091 47.337-8.625 70.65-2.003 18.549 5.269 36.278 14.777 48.771 29.726 21.565 25.805 18.784 61.57 1.243 88.637-21.158 32.647-60.132 49.7-97.291 56.042-28.772 4.91-70.006 4.713-86.985-23.883-9.213-15.517-6.729-35.06-1.926-51.555 6.206-21.312 16.283-42.314 33.918-56.446 35.972-28.827 91.448-17.035 130.134-.579 20.299 8.635 39.656 20.974 52.058 39.59 8.108 12.171 13.395 26.649 10.875 41.384-4.907 28.688-36.124 45.769-60.278 56.168-56.605 24.371-123.191 32.193-183.319 17.414-17.92-4.404-36.194-11.548-49.561-24.685-14.148-13.904-18.577-33.844-13.547-52.8 5.961-22.467 23.434-40.988 40.667-55.643 13.903-11.823 29.381-22.065 45.631-30.374 26.095-13.343 55.474-21.283 84.147-26.689 31.893-6.014 66.845-9.162 98.431.101 13.125 3.85 25.574 10.527 34.527 21.046 9.541 11.209 13.526 26.107 13.552 40.615.03 16.848-6.86 33.223-15.356 47.458-10.099 16.921-23.733 31.779-38.965 44.202-27.545 22.464-67.606 40.978-102.759 25.528-18.066-7.94-33.333-24.898-32.345-45.487 1.004-20.927 16.529-39.439 31.669-52.463 15.624-13.44 34.237-23.278 55.15-23.84 19.132-.515 37.599 7.62 50.62 21.508 11.868 12.659 18.406 29.921 17.766 47.251-.744 20.132-12.205 37.536-27.919 49.449-17.824 13.513-39.977 20.152-62.237 17.005-19.867-2.809-37.912-13.832-50.456-29.317-13.522-16.693-19.293-38.25-18.067-59.499.935-16.208 8.327-31.398 17.087-44.773 20.91-31.925 53.915-58.723 89.826-71.768 16.543-6.009 34.769-8.807 52.093-4.694 17.069 4.052 32.108 15.798 40.621 31.084 18.715 33.606-19.806 60.954-45.82 73.793-15.285 7.543-31.686 13.254-48.418 16.547-14.968 2.947-31.432 3.139-44.386-6.047-25.795-18.29-17.045-59.223.521-79.823 5.043-5.915 11.328-10.688 18.421-13.864 9.614-4.305 19.035-3.17 27.971 2.208 16.738 10.073 27.565 29.383 36.666 46.04 6.547 11.982 10.073 26.033 12.911 39.32 3.233 15.137 4.404 30.65 3.774 46.104-1.016 24.954-7.375 49.546-17.925 72.134-18.554 39.722-54.29 78.609-101.869 74.491-46.728-4.044-76.524-46.439-89.848-87.666-4.895-15.143-7.918-30.84-7.659-46.775.239-14.719 2.282-29.435 5.245-43.835 3.308-16.077 8.064-31.949 14.856-46.91 5.906-13.009 13.735-25.965 25.186-34.817 29.414-22.738 65.798 7.476 80.151 33.619 19.796 36.057 6.231 79.415-17.961 109.607-25.441 31.75-66.066 53.868-107.46 48.008C26.38 267.231-10.056 168.119 8.632 96.311c5.499-21.129 16.395-40.478 31.755-56.008 16.394-16.574 37.707-27.288 60.024-33.368 41.266-11.241 87.819-7.708 128.69 3.808 37.276 10.502 78.864 32.015 90.088 72.142 13.146 46.999-26.684 90.336-60.739 116.699-9.345 7.235-19.234 13.781-29.5 19.631a211.456 211.456 0 0 1-13.203 6.892 175.35 175.35 0 0 1-6.298 2.852c-3.578 1.548-6.658 3.974-10.052 5.908-13.678 7.795-29.393 10.059-44.165 4.114-12.071-4.858-18.8-13.556-22.161-25.793-5.596-20.377-1.726-43.53 3.849-63.487 5.591-20.019 15.343-39.938 29.8-55.017 15.68-16.354 37.707-24.246 60.117-24.455 15.999-.148 32.092 3.089 47.487 7.166 36.878 9.765 73.287 26.588 102.799 50.979 26.644 22.021 47.592 53.859 38.924 89.665-9.648 39.854-56.05 49.931-91.19 52.048-36.575 2.203-73.983-2.453-109.289-11.982-38.858-10.487-82.712-29.703-100.5-68.479-7.507-16.364-12.971-41.769-.141-57.029 13.137-15.624 36.835-.299 48.135 10.209 11.904 11.07 21.805 25.034 28.14 40.005 5.127 12.117 8.679 28.436-1.32 39.099-6.038 6.439-15.631 8.308-24.03 8.98-9.582.768-19.635.299-28.395-4.025-13.468-6.65-17.306-21.658-16.163-35.562 1.3-15.814 8.235-31.366 17.494-44.091 8.412-11.561 19.78-19.485 32.385-25.909 29.556-15.062 65.686-24.568 98.958-20.889 14.953 1.654 29.98 7.065 39.866 18.876 13.628 16.283 12.836 39.601 6.2 58.584-8.263 23.637-24.533 43.32-34.961 65.906-.268.579.389.793.832.793 10.676-.004 22.416.14 31.807-5.669.594-.368.321-1.041-.298-1.115-19.162-2.29-38.637-.841-57.882-1.625-18.896-.77-40.353-2.871-55.224-15.804l-.323 1.103c28.837-14.115 62.643-14.655 94.083-16.08.866-.039 1.59-1.154.428-1.379-26.316-5.083-53.697-2.87-79.508-10.761l-.65 1.33c14.339-1.306 28.705.051 42.994 1.348.917.083 1.993-1.217.677-1.376-45.585-5.503-91.517-9.475-136.265-20.222l-.65 1.33c23.258-2.877 46.718-4.261 70.154-4.054 24.522.217 49.815 2.039 73.291 9.579 8.833 2.837 17.435 6.698 24.517 12.786 2.836 2.438 5.499 5.495 6.581 9.135 1.476 4.961-3.057 7.982-7.005 9.632-2.522 1.054-6.723 3.005-8.52.251-1.599-2.45-2.813-5.125-3.895-7.834-2.162-5.416-3.231-11.236-3.93-17-1.523-12.57-.519-25.409.506-37.977.869-10.667 2.018-21.332 2.071-32.044.005-1.024-1.79-.652-1.955.156-5.262 25.72-4.444 52.771-16.161 76.848l1.807-.319c-7.845-10.204-5.256-26.961-3.961-38.847l-1.955.156c1.316 23.552.325 48.738-10.755 70.091l1.668-.447c-12.898-10.187-18.062-27.144-20.49-42.77-2.481-15.972-2.024-32.924 1.802-48.652l-1.943.337c4.133 21.414 3.586 50.911-13.353 67.036l1.771.015c-9.603-25.421-8.386-55.116-.044-80.721l-1.887.157c1.411 14.437 1.853 28.973.482 43.431-1.366 14.403-4.801 29.537-13.835 41.173l1.771.015c-3.24-15.391-4.226-31.51-4.003-47.2.126-8.868.853-17.797 2.883-26.445 1.616-6.881 4.441-14.56 10.596-18.623 3.129-2.065 3.272-.079 4.703 2.867 1.308 2.694 2.386 5.499 3.398 8.314 2.458 6.839 4.293 13.904 5.825 21.001 3.315 15.361 5.306 31.689 3.061 47.342-1.363 9.507-5.389 21.139-16.285 22.687-13.531 1.921-22.667-8.336-25.938-20.262-3.872-14.111-2.256-29.777.144-43.996 1.957-11.591 4.633-24.031 10.167-34.514l-1.887.157c2.83 20.361 1.776 41.671-1.164 61.949-2.729 18.82-7.941 46.407-26.673 56.158l1.401.476c2.658-22.102 13.958-44.923 28.841-61.314 3.688-4.062 7.906-7.678 12.643-10.461 2.4-1.41 2.849-1.833 4.773.191 1.718 1.807 3.339 3.701 4.917 5.631 5.63 6.887 10.45 14.772 12.581 23.476 5.518 22.532-19.925 33.862-38.762 32.968-15.401-.73-25.333-12.235-29.977-26.012-4.946-14.672-4.797-31.036-2.691-46.208 2.154-15.511 7.153-29.569 16.69-42.097 10.887-14.3 27.458-26.578 45.983-27.31 20.353-.803 33.132 16.065 38.804 33.708 6.836 21.269 3.646 46.352-10.896 63.777-6.283 7.528-15.291 12.855-25.302 12.388-11.757-.548-21.232-9.472-28.037-18.234-24.069-30.994-24.396-80.505 6.726-107.18 15.722-13.476 36.148-15.074 55.897-12.859 20.15 2.261 44.063 8.479 57.364 24.97 14.949 18.535 3.814 42-9.792 57.364-12.8 14.454-29.458 26.596-46.164 36.201-41.943 24.118-146.209 52.064-154.981-21.993-2.481-20.948 3.157-43.144 10.93-62.428 8.778-21.78 22.198-42.396 40.348-57.489 41.221-34.277 101.023-15.775 144.106 5.347 38.304 18.779 91.75 51.03 79.27 101.578-11.177 45.268-60.78 68.129-101.149 80.764-36.591 11.453-75.532 17.558-113.91 15.711-19.735-.95-40.837-4.046-57.842-14.769-8.476-5.345-15.064-13.174-18.671-22.54-4.983-12.942.934-26.872 8.456-37.443 11.069-15.555 26.605-24.965 44.007-31.806 17.704-6.96 36.479-11.337 55.255-14.174 19.802-2.993 40.007-4.021 59.978-2.324 17.758 1.508 35.938 5.397 51.469 14.46 12.419 7.247 23.048 18.979 25.497 33.53 1.951 11.59-4.138 21.72-13.119 28.538-10.965 8.324-25.15 12.145-38.568 14.057-15.487 2.206-31.419 1.54-46.719-1.64-15.007-3.119-29.708-9.188-41.518-19.098-14.611-12.261-21.402-30.916-23.442-49.478-2.332-21.211 4.594-42.366 19.173-57.929 14.886-15.89 36.465-23.762 57.899-24.561 24.021-.895 48.766 8.093 69.684 19.283 17.963 9.609 34.998 23.044 45.103 41.035 9.504 16.921 9.048 36.234-.595 52.956-11.034 19.135-30.956 32.53-50.271 42.297-14.292 7.227-29.437 12.884-44.95 16.846-14.268 3.645-29.517 5.99-44.206 3.784-12.043-1.809-22.931-8.033-27.142-19.955-5.841-16.533 1.151-36.613 7.688-51.795 18.232-42.348 57.323-77.511 102.699-87.577 23.764-5.271 48.55-2.082 70.338 8.665 22.751 11.221 39.408 29.969 46.653 54.395 6.75 22.754 3.378 47.648-9.379 67.651-11.841 18.566-31.446 30.604-51.585 38.376-40.17 15.502-86.847 16.732-128.793 8.795-22.36-4.231-44.449-12.036-63.084-25.313-19.278-13.736-32.276-33.686-37.674-56.673-10.91-46.462 11.025-102.72 59.163-117.695 39.593-12.317 81.96 10.627 104.267 43.055 11.992 17.433 17.584 38.212 19.584 59.077 2.052 21.408-.544 43.49-8.638 63.47-8.303 20.493-23.196 37.556-42.634 48.136-20.104 10.944-47.896 17.281-67.682 2.49-20.27-15.153-22.514-44.919-20.156-67.988 2.184-21.357 10.535-52.534 33.589-60.151 10.188-3.366 21.763-.512 31.832 1.867 7.242 1.711 14.427 3.576 21.515 5.849 15.673 5.025 30.916 11.46 45.71 18.651 31.287 15.207 63.935 34.794 85.153 63.025 8.71 11.589 14.979 25.479 14.198 40.229-.916 17.271-12.15 31.698-24.688 42.641-35.175 30.698-86.92 33.35-131.253 28.704-42.655-4.471-88.497-18.624-115.834-53.808-25.402-32.694-25.294-78.548-13.854-116.614 11.778-39.19 35.432-77.633 67.816-103.04 14.818-11.625 32.434-20.229 51.433-21.485 20.512-1.357 39.582 7.493 55 20.442 13.334 11.199 23.255 24.467 29.477 40.712 5.882 15.359 8.626 31.971 8.884 48.376.465 29.633-8.672 66.169-39.207 78.046-33.707 13.112-66.597-12.712-86.673-37.557-10.095-12.493-19.52-28.493-18.653-45.12.397-7.619 3.774-14.47 9.116-19.83 7.135-7.159 15.447-8.539 25.209-7.934 18.061 1.119 34.747 7.574 51.867 12.678 21.494 6.408 42.782 14.901 61.117 28.018 17.068 12.21 30.61 29.625 33.432 50.857 1.82 13.696-1.377 27.503-7.319 39.83-13.523 28.055-40.341 48.784-67.311 62.991-27.473 14.472-59.624 24.178-90.927 21.762-27.448-2.119-51.251-16.67-59.061-44.071-11.627-40.793 4.8-84.107 27.341-117.914 25.352-38.022 61.425-69.729 101.298-91.81 32.56-18.031 73.982-31.911 111.285-21.544 19.569 5.438 31.694 21.558 29.003 42.108-2.785 21.263-18.153 40.183-32.026 55.548-25.882 28.667-57.34 53.674-90.895 72.737-34.054 19.346-73.611 34.603-113.383 32.577-18.514-.943-36.515-6.509-51.862-16.986-17.443-11.908-30.337-29.992-38.682-49.186-5.48-12.604-8.854-27.674-2.551-40.607 5.45-11.182 17.337-17.3 28.741-20.7 28.421-8.471 61.378-4.69 89.531 3.022 11.67 3.197 23.895 7.386 33.738 14.62 10.656 7.83 18.763 19.272 25.621 30.406 15.651 25.41 28.607 58.174 24.997 88.542-1.567 13.186-7.764 25.427-19.644 32.045-12.808 7.135-32.533 8.684-45.624 1.605-12.282-6.642-17.569-20.819-19.674-33.848-2.595-16.06-.795-32.837 2.713-48.613 3.311-14.885 8.591-29.817 16.929-42.667 7.771-11.977 26.761-27.708 40.267-15.053 12.682 11.882 8.636 35.086.493 48.12-8.829 14.13-25.468 22.788-41.13 26.847-28.458 7.375-67.727-.594-72.188-34.879-2.245-17.251 4.351-34.568 16.772-46.479 12.51-11.997 29.789-18.27 46.549-21.346 31.693-5.816 74.279-1.031 95.827 25.789 9.237 11.497 8.336 28.088 6.291 41.864-2.398 16.151-8.013 33.138-18.447 45.937-4.359 5.347-10.163 9.993-17.148 11.057-7.5 1.143-15.191-2.856-20.468-7.917-12.219-11.718-8.301-33.863-4.607-48.283 4.516-17.633 12.673-36.2 25.214-49.636a41.182 41.182 0 0 1 3.938-3.672 30.835 30.835 0 0 1 1.745-1.307c.906-.644 1.051-.922 1.242-.581 2.27 4.045 3.249 8.747 3.508 13.335.524 9.299-2.456 18.612-6.067 27.046-8.134 18.996-21.457 35.987-35.747 50.741-5.73 5.916-11.843 11.571-18.657 16.224-8.264 5.642-18.688 11.567-29.092 10.367-15.915-1.836-19.112-23.135-20.164-35.708-1.347-16.101-.186-32.938 3.041-48.767 3.431-16.831 9.122-33.314 16.405-48.855 6.855-14.628 15.73-29.91 29.023-39.589 13.687-9.965 28.602-6.281 40.348 4.738 16.41 15.395 26.128 37.542 23.829 60.091-2.25 22.059-15.854 41.691-33.65 54.293-18.157 12.858-43.331 19.259-64.552 10.662-17.334-7.022-28.028-24.217-29.561-42.438-.831-9.877 1.421-19.84 5.594-28.759 5.142-10.99 14.436-22.559 26.135-26.714 11.827-4.2 21.736 4.225 27.195 13.938 5.353 9.523 7.513 21.398 7.063 32.229-.833 20.068-11.417 38.733-24.624 53.308-25.471 28.108-76.074 50.868-109.426 22.283-13.904-11.917-18.104-30.873-18.062-48.411.047-19.734 5.141-39.418 11.734-57.889 13.229-37.061 37.087-82.987 80.764-88 24.887-2.856 47.744 11.526 64.682 28.345 18.106 17.979 30.593 40.906 31.985 66.674 2.627 48.655-33.617 91.701-73.685 114.559-31.98 18.244-70.624 26.88-106.78 16.869-15.264-4.226-29.521-12.419-39.397-24.967-10.74-13.645-14.049-31.157-12.749-48.15 1.718-22.455 11.283-44.17 21.468-63.967 11.317-21.997 25.61-42.517 42.448-60.641 31.911-34.348 74.912-58.28 122.833-54.983 40.929 2.815 82.606 22.311 109.808 53.189 13.109 14.881 22.254 33.061 24.983 52.783 2.744 19.832-1.546 40.722-10.301 58.576-17.623 35.938-53.913 59.099-89.983 73.476-35.896 14.308-74.301 20.533-112.829 19.96-18.614-.277-37.948-1.892-55.167-9.484-8.701-3.836-16.39-9.733-21.673-17.689-6.683-10.062-7.482-21.971-5.704-33.618 3.924-25.694 19.146-49.916 33.231-71.263 13.049-19.779 29.346-39.069 51.599-48.6 34.807-14.907 76.406 2.752 94.23 34.729 15.628 28.036 15.093 63.334 6.831 93.531-8.394 30.674-26.996 61.146-56.015 76.002-39.183 20.059-88.655 5.561-123.951-16.064-18.259-11.187-34.825-25.889-46.515-43.937-12.371-19.099-16.492-42.66-17.41-65.051-1.027-25.055 2.863-50.422 10.811-74.175C19.887 86.546 32.12 63.883 50.37 47.75c36.85-32.575 90.489-23.597 134.515-15.154 49.188 9.433 99.913 20.501 143.702 45.832 28.55 16.516 61.201 43.965 60.417 80.242-.571 26.457-19.88 48.279-39.476 63.895-25.71 20.488-56.611 34.475-87.685 44.64-31.148 10.189-64.056 16.698-96.902 16.854-13.806.066-27.79-1.163-41.136-4.826-11.314-3.105-22.567-8.094-29.834-17.636-9.223-12.111-12.8-28.289-14.401-43.119-1.846-17.095-.549-34.797 4.16-51.347 4.079-14.332 11.733-29.439 25.385-36.713 18.325-9.763 36.377 1.735 45.477 18.107 9.201 16.555 10.812 38.529-1.125 54.133-10.796 14.112-30.238 15.215-45.89 9.911-20.111-6.815-36.231-25.224-35.245-47.144.033-.99-1.928-.694-1.967.158z"/></svg>